# Blender v2.79 (sub 0) OBJ File: "'Cornellbox'-test3.blend"
# www.blender.org
mtllib 'Cornellbox'-test3.mtl
o ceiling_Plane.007
v -5.000000 10.000000 5.000000
v 5.000000 10.000000 5.000000
v -5.000000 10.000000 -5.000000
v 5.000000 10.000000 -5.000000
v -5.000000 10.000000 0.000000
v 0.000000 10.000000 5.000000
v 5.000000 10.000000 0.000000
v 0.000000 10.000000 -5.000000
v 0.000000 10.000000 0.000000
v 2.500000 10.000000 -2.500000
v -2.500000 10.000000 -2.500000
v -2.500000 10.000000 2.500000
v 2.500000 10.000000 2.500000
vn 0.0000 1.0000 0.0000
usemtl Material.008
s off
f 5//1 9//1 11//1
f 1//1 6//1 12//1
f 6//1 2//1 13//1
f 9//1 7//1 10//1
f 7//1 4//1 10//1
f 4//1 8//1 10//1
f 8//1 9//1 10//1
f 9//1 8//1 11//1
f 8//1 3//1 11//1
f 3//1 5//1 11//1
f 6//1 9//1 12//1
f 9//1 5//1 12//1
f 5//1 1//1 12//1
f 2//1 7//1 13//1
f 7//1 9//1 13//1
f 9//1 6//1 13//1
o Cube_Cube.001
v -1.750000 0.000000 1.500000
v -1.750000 3.000000 1.500000
v -1.750000 0.000000 -2.500000
v -1.750000 3.000000 -2.500000
v 2.250000 0.000000 1.500000
v 2.250000 3.000000 1.500000
v 2.250000 0.000000 -2.500000
v 2.250000 3.000000 -2.500000
v -1.750000 0.000000 -1.166667
v -1.750000 0.000000 0.166667
v -1.750000 1.000000 1.500000
v -1.750000 2.000000 1.500000
v -1.750000 3.000000 0.166667
v -1.750000 3.000000 -1.166667
v -1.750000 2.000000 -2.500000
v -1.750000 1.000000 -2.500000
v 0.916667 0.000000 -2.500000
v -0.416667 0.000000 -2.500000
v -0.416667 3.000000 -2.500000
v 0.916667 3.000000 -2.500000
v 2.250000 2.000000 -2.500000
v 2.250000 1.000000 -2.500000
v 2.250000 0.000000 0.166667
v 2.250000 0.000000 -1.166667
v 2.250000 3.000000 -1.166667
v 2.250000 3.000000 0.166667
v 2.250000 2.000000 1.500000
v 2.250000 1.000000 1.500000
v -0.416667 0.000000 1.500000
v 0.916667 0.000000 1.500000
v 0.916667 3.000000 1.500000
v -0.416667 3.000000 1.500000
v 0.916667 3.000000 -1.166667
v 0.916667 3.000000 0.166667
v -0.416667 3.000000 -1.166667
v -0.416667 3.000000 0.166667
v -0.416667 0.000000 -1.166667
v -0.416667 0.000000 0.166667
v 0.916667 0.000000 -1.166667
v 0.916667 0.000000 0.166667
v 0.916667 1.000000 1.500000
v -0.416667 1.000000 1.500000
v 0.916667 2.000000 1.500000
v -0.416667 2.000000 1.500000
v 2.250000 1.000000 -1.166667
v 2.250000 1.000000 0.166667
v 2.250000 2.000000 -1.166667
v 2.250000 2.000000 0.166667
v -0.416667 1.000000 -2.500000
v 0.916667 1.000000 -2.500000
v -0.416667 2.000000 -2.500000
v 0.916667 2.000000 -2.500000
v -1.750000 1.000000 0.166667
v -1.750000 1.000000 -1.166667
v -1.750000 2.000000 0.166667
v -1.750000 2.000000 -1.166667
v -1.750000 2.500000 -1.833333
v 1.583333 2.500000 -2.500000
v 2.250000 2.500000 0.833333
v -1.083333 2.500000 1.500000
v 1.583333 0.000000 0.833333
v -1.083333 3.000000 0.833333
v 1.583333 3.000000 0.833333
v 0.250000 3.000000 0.833333
v 1.583333 3.000000 -1.833333
v 1.583333 3.000000 -0.500000
v 0.250000 3.000000 -1.833333
v 0.250000 3.000000 -0.500000
v -1.083333 3.000000 -1.833333
v -1.083333 3.000000 -0.500000
v -1.083333 0.000000 0.833333
v 0.250000 0.000000 0.833333
v -1.083333 0.000000 -1.833333
v -1.083333 0.000000 -0.500000
v 0.250000 0.000000 -1.833333
v 0.250000 0.000000 -0.500000
v 1.583333 0.000000 -1.833333
v 1.583333 0.000000 -0.500000
v -1.083333 0.500000 1.500000
v -1.083333 1.500000 1.500000
v 1.583333 0.500000 1.500000
v 0.250000 0.500000 1.500000
v 1.583333 1.500000 1.500000
v 0.250000 1.500000 1.500000
v 1.583333 2.500000 1.500000
v 0.250000 2.500000 1.500000
v 2.250000 0.500000 0.833333
v 2.250000 1.500000 0.833333
v 2.250000 0.500000 -1.833333
v 2.250000 0.500000 -0.500000
v 2.250000 1.500000 -1.833333
v 2.250000 1.500000 -0.500000
v 2.250000 2.500000 -1.833333
v 2.250000 2.500000 -0.500000
v 1.583333 0.500000 -2.500000
v 1.583333 1.500000 -2.500000
v -1.083333 0.500000 -2.500000
v 0.250000 0.500000 -2.500000
v -1.083333 1.500000 -2.500000
v 0.250000 1.500000 -2.500000
v -1.083333 2.500000 -2.500000
v 0.250000 2.500000 -2.500000
v -1.750000 0.500000 -1.833333
v -1.750000 1.500000 -1.833333
v -1.750000 0.500000 0.833333
v -1.750000 0.500000 -0.500000
v -1.750000 1.500000 0.833333
v -1.750000 1.500000 -0.500000
v -1.750000 2.500000 0.833333
v -1.750000 2.500000 -0.500000
vn 0.0000 0.0000 -1.0000
vn 1.0000 0.0000 0.0000
vn 0.0000 0.0000 1.0000
vn 0.0000 -1.0000 0.0000
vn 0.0000 1.0000 -0.0000
vn -1.0000 0.0000 0.0000
usemtl Material.007
s off
f 65//2 33//2 71//2
f 61//3 39//3 72//3
f 57//4 45//4 73//4
f 53//5 36//5 74//5
f 49//6 26//6 75//6
f 39//6 47//6 76//6
f 47//6 49//6 77//6
f 21//6 33//6 78//6
f 38//6 46//6 79//6
f 33//6 32//6 80//6
f 46//6 48//6 81//6
f 32//6 17//6 82//6
f 48//6 27//6 83//6
f 23//5 51//5 84//5
f 51//5 53//5 85//5
f 16//5 31//5 86//5
f 22//5 50//5 87//5
f 31//5 30//5 88//5
f 50//5 52//5 89//5
f 30//5 20//5 90//5
f 52//5 37//5 91//5
f 42//4 55//4 92//4
f 55//4 57//4 93//4
f 18//4 41//4 94//4
f 43//4 54//4 95//4
f 41//4 40//4 96//4
f 54//4 56//4 97//4
f 40//4 19//4 98//4
f 56//4 44//4 99//4
f 36//3 59//3 100//3
f 59//3 61//3 101//3
f 20//3 35//3 102//3
f 37//3 58//3 103//3
f 35//3 34//3 104//3
f 58//3 60//3 105//3
f 34//3 21//3 106//3
f 60//3 38//3 107//3
f 30//2 63//2 108//2
f 63//2 65//2 109//2
f 16//2 29//2 110//2
f 31//2 62//2 111//2
f 29//2 28//2 112//2
f 62//2 64//2 113//2
f 28//2 17//2 114//2
f 64//2 32//2 115//2
f 22//7 67//7 116//7
f 67//7 69//7 117//7
f 14//7 24//7 118//7
f 23//7 66//7 119//7
f 24//7 25//7 120//7
f 66//7 68//7 121//7
f 25//7 15//7 122//7
f 68//7 26//7 123//7
f 69//7 27//7 70//7
f 27//7 17//7 70//7
f 17//7 28//7 70//7
f 28//7 69//7 70//7
f 33//2 21//2 71//2
f 21//2 34//2 71//2
f 34//2 65//2 71//2
f 39//3 19//3 72//3
f 19//3 40//3 72//3
f 40//3 61//3 72//3
f 45//4 15//4 73//4
f 15//4 25//4 73//4
f 25//4 57//4 73//4
f 36//5 18//5 74//5
f 18//5 43//5 74//5
f 43//5 53//5 74//5
f 26//6 15//6 75//6
f 15//6 45//6 75//6
f 45//6 49//6 75//6
f 47//6 44//6 76//6
f 44//6 19//6 76//6
f 19//6 39//6 76//6
f 49//6 45//6 77//6
f 45//6 44//6 77//6
f 44//6 47//6 77//6
f 33//6 46//6 78//6
f 46//6 38//6 78//6
f 38//6 21//6 78//6
f 46//6 47//6 79//6
f 47//6 39//6 79//6
f 39//6 38//6 79//6
f 32//6 48//6 80//6
f 48//6 46//6 80//6
f 46//6 33//6 80//6
f 48//6 49//6 81//6
f 49//6 47//6 81//6
f 47//6 46//6 81//6
f 17//6 27//6 82//6
f 27//6 48//6 82//6
f 48//6 32//6 82//6
f 27//6 26//6 83//6
f 26//6 49//6 83//6
f 49//6 48//6 83//6
f 51//5 42//5 84//5
f 42//5 14//5 84//5
f 14//5 23//5 84//5
f 53//5 43//5 85//5
f 43//5 42//5 85//5
f 42//5 51//5 85//5
f 31//5 50//5 86//5
f 50//5 22//5 86//5
f 22//5 16//5 86//5
f 50//5 51//5 87//5
f 51//5 23//5 87//5
f 23//5 22//5 87//5
f 30//5 52//5 88//5
f 52//5 50//5 88//5
f 50//5 31//5 88//5
f 52//5 53//5 89//5
f 53//5 51//5 89//5
f 51//5 50//5 89//5
f 20//5 37//5 90//5
f 37//5 52//5 90//5
f 52//5 30//5 90//5
f 37//5 36//5 91//5
f 36//5 53//5 91//5
f 53//5 52//5 91//5
f 55//4 24//4 92//4
f 24//4 14//4 92//4
f 14//4 42//4 92//4
f 57//4 25//4 93//4
f 25//4 24//4 93//4
f 24//4 55//4 93//4
f 41//4 54//4 94//4
f 54//4 43//4 94//4
f 43//4 18//4 94//4
f 54//4 55//4 95//4
f 55//4 42//4 95//4
f 42//4 43//4 95//4
f 40//4 56//4 96//4
f 56//4 54//4 96//4
f 54//4 41//4 96//4
f 56//4 57//4 97//4
f 57//4 55//4 97//4
f 55//4 54//4 97//4
f 19//4 44//4 98//4
f 44//4 56//4 98//4
f 56//4 40//4 98//4
f 44//4 45//4 99//4
f 45//4 57//4 99//4
f 57//4 56//4 99//4
f 59//3 41//3 100//3
f 41//3 18//3 100//3
f 18//3 36//3 100//3
f 61//3 40//3 101//3
f 40//3 41//3 101//3
f 41//3 59//3 101//3
f 35//3 58//3 102//3
f 58//3 37//3 102//3
f 37//3 20//3 102//3
f 58//3 59//3 103//3
f 59//3 36//3 103//3
f 36//3 37//3 103//3
f 34//3 60//3 104//3
f 60//3 58//3 104//3
f 58//3 35//3 104//3
f 60//3 61//3 105//3
f 61//3 59//3 105//3
f 59//3 58//3 105//3
f 21//3 38//3 106//3
f 38//3 60//3 106//3
f 60//3 34//3 106//3
f 38//3 39//3 107//3
f 39//3 61//3 107//3
f 61//3 60//3 107//3
f 63//2 35//2 108//2
f 35//2 20//2 108//2
f 20//2 30//2 108//2
f 65//2 34//2 109//2
f 34//2 35//2 109//2
f 35//2 63//2 109//2
f 29//2 62//2 110//2
f 62//2 31//2 110//2
f 31//2 16//2 110//2
f 62//2 63//2 111//2
f 63//2 30//2 111//2
f 30//2 31//2 111//2
f 28//2 64//2 112//2
f 64//2 62//2 112//2
f 62//2 29//2 112//2
f 64//2 65//2 113//2
f 65//2 63//2 113//2
f 63//2 62//2 113//2
f 17//2 32//2 114//2
f 32//2 64//2 114//2
f 64//2 28//2 114//2
f 32//2 33//2 115//2
f 33//2 65//2 115//2
f 65//2 64//2 115//2
f 67//7 29//7 116//7
f 29//7 16//7 116//7
f 16//7 22//7 116//7
f 69//7 28//7 117//7
f 28//7 29//7 117//7
f 29//7 67//7 117//7
f 24//7 66//7 118//7
f 66//7 23//7 118//7
f 23//7 14//7 118//7
f 66//7 67//7 119//7
f 67//7 22//7 119//7
f 22//7 23//7 119//7
f 25//7 68//7 120//7
f 68//7 66//7 120//7
f 66//7 24//7 120//7
f 68//7 69//7 121//7
f 69//7 67//7 121//7
f 67//7 66//7 121//7
f 15//7 26//7 122//7
f 26//7 68//7 122//7
f 68//7 25//7 122//7
f 26//7 27//7 123//7
f 27//7 69//7 123//7
f 69//7 68//7 123//7
o front_wall_Plane.005
v -5.000000 10.000000 5.000000
v -5.000000 0.000000 5.000000
v -5.000000 10.000000 -5.000000
v -5.000000 0.000000 -5.000000
v -5.000000 10.000000 0.000000
v -5.000000 5.000000 5.000000
v -5.000000 0.000000 0.000000
v -5.000000 5.000000 -5.000000
v -5.000000 5.000000 0.000000
v -5.000000 7.500000 2.500000
v -5.000000 2.500000 2.500000
v -5.000000 2.500000 -2.500000
v -5.000000 7.500000 -2.500000
vn 1.0000 0.0000 0.0000
usemtl Material.006
s off
f 130//8 132//8 134//8
f 127//8 131//8 135//8
f 131//8 126//8 136//8
f 132//8 128//8 133//8
f 128//8 124//8 133//8
f 124//8 129//8 133//8
f 129//8 132//8 133//8
f 132//8 129//8 134//8
f 129//8 125//8 134//8
f 125//8 130//8 134//8
f 131//8 132//8 135//8
f 132//8 130//8 135//8
f 130//8 127//8 135//8
f 126//8 128//8 136//8
f 128//8 132//8 136//8
f 132//8 131//8 136//8
o right_wall_Plane.003
v -5.000000 0.000000 5.000000
v 5.000000 0.000000 5.000000
v -5.000000 10.000000 5.000000
v 5.000000 10.000000 5.000000
v -5.000000 8.000000 5.000000
v -5.000000 6.000000 5.000000
v -5.000000 4.000000 5.000000
v -5.000000 2.000000 5.000000
v -3.000000 0.000000 5.000000
v -1.000000 0.000000 5.000000
v 1.000000 0.000000 5.000000
v 3.000000 0.000000 5.000000
v 5.000000 2.000000 5.000000
v 5.000000 4.000000 5.000000
v 5.000000 6.000000 5.000000
v 5.000000 8.000000 5.000000
v 3.000000 10.000000 5.000000
v 1.000000 10.000000 5.000000
v -1.000000 10.000000 5.000000
v -3.000000 10.000000 5.000000
v 3.000000 8.000000 5.000000
v 3.000000 6.000000 5.000000
v 3.000000 4.000000 5.000000
v 3.000000 2.000000 5.000000
v 1.000000 8.000000 5.000000
v 1.000000 6.000000 5.000000
v 1.000000 4.000000 5.000000
v 1.000000 2.000000 5.000000
v -1.000000 8.000000 5.000000
v -1.000000 6.000000 5.000000
v -1.000000 4.000000 5.000000
v -1.000000 2.000000 5.000000
v -3.000000 8.000000 5.000000
v -3.000000 6.000000 5.000000
v -3.000000 4.000000 5.000000
v -3.000000 2.000000 5.000000
v -4.000000 1.000000 5.000000
v 4.000000 1.000000 5.000000
v 2.000000 1.000000 5.000000
v 0.000000 1.000000 5.000000
v -2.000000 1.000000 5.000000
v 4.000000 9.000000 5.000000
v 4.000000 7.000000 5.000000
v 4.000000 5.000000 5.000000
v 4.000000 3.000000 5.000000
v 2.000000 9.000000 5.000000
v 2.000000 7.000000 5.000000
v 2.000000 5.000000 5.000000
v 2.000000 3.000000 5.000000
v 0.000000 9.000000 5.000000
v 0.000000 7.000000 5.000000
v 0.000000 5.000000 5.000000
v 0.000000 3.000000 5.000000
v -2.000000 9.000000 5.000000
v -2.000000 7.000000 5.000000
v -2.000000 5.000000 5.000000
v -2.000000 3.000000 5.000000
v -4.000000 9.000000 5.000000
v -4.000000 7.000000 5.000000
v -4.000000 5.000000 5.000000
v -4.000000 3.000000 5.000000
vn 0.0000 0.0000 1.0000
usemtl Material.004
s off
f 149//9 160//9 174//9
f 160//9 164//9 175//9
f 164//9 168//9 176//9
f 168//9 172//9 177//9
f 140//9 153//9 178//9
f 152//9 157//9 179//9
f 151//9 158//9 180//9
f 150//9 159//9 181//9
f 153//9 154//9 182//9
f 157//9 161//9 183//9
f 158//9 162//9 184//9
f 159//9 163//9 185//9
f 154//9 155//9 186//9
f 161//9 165//9 187//9
f 162//9 166//9 188//9
f 163//9 167//9 189//9
f 155//9 156//9 190//9
f 165//9 169//9 191//9
f 166//9 170//9 192//9
f 167//9 171//9 193//9
f 156//9 139//9 194//9
f 169//9 141//9 195//9
f 170//9 142//9 196//9
f 171//9 143//9 197//9
f 172//9 144//9 173//9
f 144//9 137//9 173//9
f 137//9 145//9 173//9
f 145//9 172//9 173//9
f 160//9 148//9 174//9
f 148//9 138//9 174//9
f 138//9 149//9 174//9
f 164//9 147//9 175//9
f 147//9 148//9 175//9
f 148//9 160//9 175//9
f 168//9 146//9 176//9
f 146//9 147//9 176//9
f 147//9 164//9 176//9
f 172//9 145//9 177//9
f 145//9 146//9 177//9
f 146//9 168//9 177//9
f 153//9 157//9 178//9
f 157//9 152//9 178//9
f 152//9 140//9 178//9
f 157//9 158//9 179//9
f 158//9 151//9 179//9
f 151//9 152//9 179//9
f 158//9 159//9 180//9
f 159//9 150//9 180//9
f 150//9 151//9 180//9
f 159//9 160//9 181//9
f 160//9 149//9 181//9
f 149//9 150//9 181//9
f 154//9 161//9 182//9
f 161//9 157//9 182//9
f 157//9 153//9 182//9
f 161//9 162//9 183//9
f 162//9 158//9 183//9
f 158//9 157//9 183//9
f 162//9 163//9 184//9
f 163//9 159//9 184//9
f 159//9 158//9 184//9
f 163//9 164//9 185//9
f 164//9 160//9 185//9
f 160//9 159//9 185//9
f 155//9 165//9 186//9
f 165//9 161//9 186//9
f 161//9 154//9 186//9
f 165//9 166//9 187//9
f 166//9 162//9 187//9
f 162//9 161//9 187//9
f 166//9 167//9 188//9
f 167//9 163//9 188//9
f 163//9 162//9 188//9
f 167//9 168//9 189//9
f 168//9 164//9 189//9
f 164//9 163//9 189//9
f 156//9 169//9 190//9
f 169//9 165//9 190//9
f 165//9 155//9 190//9
f 169//9 170//9 191//9
f 170//9 166//9 191//9
f 166//9 165//9 191//9
f 170//9 171//9 192//9
f 171//9 167//9 192//9
f 167//9 166//9 192//9
f 171//9 172//9 193//9
f 172//9 168//9 193//9
f 168//9 167//9 193//9
f 139//9 141//9 194//9
f 141//9 169//9 194//9
f 169//9 156//9 194//9
f 141//9 142//9 195//9
f 142//9 170//9 195//9
f 170//9 169//9 195//9
f 142//9 143//9 196//9
f 143//9 171//9 196//9
f 171//9 170//9 196//9
f 143//9 144//9 197//9
f 144//9 172//9 197//9
f 172//9 171//9 197//9
o left_wall_Plane.002
v -5.000000 0.000000 -5.000000
v 5.000000 0.000000 -5.000000
v -5.000000 10.000000 -5.000000
v 5.000000 10.000000 -5.000000
v -5.000000 8.000000 -5.000000
v -5.000000 6.000000 -5.000000
v -5.000000 4.000000 -5.000000
v -5.000000 2.000000 -5.000000
v -3.000000 0.000000 -5.000000
v -1.000000 0.000000 -5.000000
v 1.000000 0.000000 -5.000000
v 3.000000 0.000000 -5.000000
v 5.000000 2.000000 -5.000000
v 5.000000 4.000000 -5.000000
v 5.000000 6.000000 -5.000000
v 5.000000 8.000000 -5.000000
v 3.000000 10.000000 -5.000000
v 1.000000 10.000000 -5.000000
v -1.000000 10.000000 -5.000000
v -3.000000 10.000000 -5.000000
v 3.000000 8.000000 -5.000000
v 3.000000 6.000000 -5.000000
v 3.000000 4.000000 -5.000000
v 3.000000 2.000000 -5.000000
v 1.000000 8.000000 -5.000000
v 1.000000 6.000000 -5.000000
v 1.000000 4.000000 -5.000000
v 1.000000 2.000000 -5.000000
v -1.000000 8.000000 -5.000000
v -1.000000 6.000000 -5.000000
v -1.000000 4.000000 -5.000000
v -1.000000 2.000000 -5.000000
v -3.000000 8.000000 -5.000000
v -3.000000 6.000000 -5.000000
v -3.000000 4.000000 -5.000000
v -3.000000 2.000000 -5.000000
v -4.000000 1.000000 -5.000000
v 4.000000 1.000000 -5.000000
v 2.000000 1.000000 -5.000000
v 0.000000 1.000000 -5.000000
v -2.000000 1.000000 -5.000000
v 4.000000 9.000000 -5.000000
v 4.000000 7.000000 -5.000000
v 4.000000 5.000000 -5.000000
v 4.000000 3.000000 -5.000000
v 2.000000 9.000000 -5.000000
v 2.000000 7.000000 -5.000000
v 2.000000 5.000000 -5.000000
v 2.000000 3.000000 -5.000000
v 0.000000 9.000000 -5.000000
v 0.000000 7.000000 -5.000000
v 0.000000 5.000000 -5.000000
v 0.000000 3.000000 -5.000000
v -2.000000 9.000000 -5.000000
v -2.000000 7.000000 -5.000000
v -2.000000 5.000000 -5.000000
v -2.000000 3.000000 -5.000000
v -4.000000 9.000000 -5.000000
v -4.000000 7.000000 -5.000000
v -4.000000 5.000000 -5.000000
v -4.000000 3.000000 -5.000000
vn 0.0000 0.0000 1.0000
usemtl Material.003
s off
f 210//10 221//10 235//10
f 221//10 225//10 236//10
f 225//10 229//10 237//10
f 229//10 233//10 238//10
f 201//10 214//10 239//10
f 213//10 218//10 240//10
f 212//10 219//10 241//10
f 211//10 220//10 242//10
f 214//10 215//10 243//10
f 218//10 222//10 244//10
f 219//10 223//10 245//10
f 220//10 224//10 246//10
f 215//10 216//10 247//10
f 222//10 226//10 248//10
f 223//10 227//10 249//10
f 224//10 228//10 250//10
f 216//10 217//10 251//10
f 226//10 230//10 252//10
f 227//10 231//10 253//10
f 228//10 232//10 254//10
f 217//10 200//10 255//10
f 230//10 202//10 256//10
f 231//10 203//10 257//10
f 232//10 204//10 258//10
f 233//10 205//10 234//10
f 205//10 198//10 234//10
f 198//10 206//10 234//10
f 206//10 233//10 234//10
f 221//10 209//10 235//10
f 209//10 199//10 235//10
f 199//10 210//10 235//10
f 225//10 208//10 236//10
f 208//10 209//10 236//10
f 209//10 221//10 236//10
f 229//10 207//10 237//10
f 207//10 208//10 237//10
f 208//10 225//10 237//10
f 233//10 206//10 238//10
f 206//10 207//10 238//10
f 207//10 229//10 238//10
f 214//10 218//10 239//10
f 218//10 213//10 239//10
f 213//10 201//10 239//10
f 218//10 219//10 240//10
f 219//10 212//10 240//10
f 212//10 213//10 240//10
f 219//10 220//10 241//10
f 220//10 211//10 241//10
f 211//10 212//10 241//10
f 220//10 221//10 242//10
f 221//10 210//10 242//10
f 210//10 211//10 242//10
f 215//10 222//10 243//10
f 222//10 218//10 243//10
f 218//10 214//10 243//10
f 222//10 223//10 244//10
f 223//10 219//10 244//10
f 219//10 218//10 244//10
f 223//10 224//10 245//10
f 224//10 220//10 245//10
f 220//10 219//10 245//10
f 224//10 225//10 246//10
f 225//10 221//10 246//10
f 221//10 220//10 246//10
f 216//10 226//10 247//10
f 226//10 222//10 247//10
f 222//10 215//10 247//10
f 226//10 227//10 248//10
f 227//10 223//10 248//10
f 223//10 222//10 248//10
f 227//10 228//10 249//10
f 228//10 224//10 249//10
f 224//10 223//10 249//10
f 228//10 229//10 250//10
f 229//10 225//10 250//10
f 225//10 224//10 250//10
f 217//10 230//10 251//10
f 230//10 226//10 251//10
f 226//10 216//10 251//10
f 230//10 231//10 252//10
f 231//10 227//10 252//10
f 227//10 226//10 252//10
f 231//10 232//10 253//10
f 232//10 228//10 253//10
f 228//10 227//10 253//10
f 232//10 233//10 254//10
f 233//10 229//10 254//10
f 229//10 228//10 254//10
f 200//10 202//10 255//10
f 202//10 230//10 255//10
f 230//10 217//10 255//10
f 202//10 203//10 256//10
f 203//10 231//10 256//10
f 231//10 230//10 256//10
f 203//10 204//10 257//10
f 204//10 232//10 257//10
f 232//10 231//10 257//10
f 204//10 205//10 258//10
f 205//10 233//10 258//10
f 233//10 232//10 258//10
o back_wall_Plane.001
v 5.000000 10.000000 5.000000
v 5.000000 0.000000 5.000000
v 5.000000 10.000000 -5.000000
v 5.000000 0.000000 -5.000000
v 5.000000 10.000000 0.000000
v 5.000000 5.000000 5.000000
v 5.000000 0.000000 0.000000
v 5.000000 5.000000 -5.000000
v 5.000000 5.000000 0.000000
v 5.000000 7.500000 2.500000
v 5.000000 2.500000 2.500000
v 5.000000 2.500000 -2.500000
v 5.000000 7.500000 -2.500000
vn 1.0000 0.0000 0.0000
usemtl Material.002
s off
f 265//11 267//11 269//11
f 262//11 266//11 270//11
f 266//11 261//11 271//11
f 267//11 263//11 268//11
f 263//11 259//11 268//11
f 259//11 264//11 268//11
f 264//11 267//11 268//11
f 267//11 264//11 269//11
f 264//11 260//11 269//11
f 260//11 265//11 269//11
f 266//11 267//11 270//11
f 267//11 265//11 270//11
f 265//11 262//11 270//11
f 261//11 263//11 271//11
f 263//11 267//11 271//11
f 267//11 266//11 271//11
o floor_Plane
v -5.000000 0.000000 5.000000
v 5.000000 0.000000 5.000000
v -5.000000 0.000000 -5.000000
v 5.000000 0.000000 -5.000000
v -5.000000 0.000000 -3.000000
v -5.000000 0.000000 -1.000000
v -5.000000 0.000000 1.000000
v -5.000000 0.000000 3.000000
v -3.000000 0.000000 5.000000
v -1.000000 0.000000 5.000000
v 1.000000 0.000000 5.000000
v 3.000000 0.000000 5.000000
v 5.000000 0.000000 3.000000
v 5.000000 0.000000 1.000000
v 5.000000 0.000000 -1.000000
v 5.000000 0.000000 -3.000000
v 3.000000 0.000000 -5.000000
v 1.000000 0.000000 -5.000000
v -1.000000 0.000000 -5.000000
v -3.000000 0.000000 -5.000000
v 3.000000 0.000000 -3.000000
v 3.000000 0.000000 -1.000000
v 3.000000 0.000000 1.000000
v 3.000000 0.000000 3.000000
v 1.000000 0.000000 -3.000000
v 1.000000 0.000000 -1.000000
v 1.000000 0.000000 1.000000
v 1.000000 0.000000 3.000000
v -1.000000 0.000000 -3.000000
v -1.000000 0.000000 -1.000000
v -1.000000 0.000000 1.000000
v -1.000000 0.000000 3.000000
v -3.000000 0.000000 -3.000000
v -3.000000 0.000000 -1.000000
v -3.000000 0.000000 1.000000
v -3.000000 0.000000 3.000000
v -4.000000 0.000000 4.000000
v 4.000000 0.000000 4.000000
v 2.000000 0.000000 4.000000
v 0.000000 0.000000 4.000000
v -2.000000 0.000000 4.000000
v 4.000000 0.000000 -4.000000
v 4.000000 0.000000 -2.000000
v 4.000000 0.000000 0.000000
v 4.000000 0.000000 2.000000
v 2.000000 0.000000 -4.000000
v 2.000000 0.000000 -2.000000
v 2.000000 0.000000 0.000000
v 2.000000 0.000000 2.000000
v 0.000000 0.000000 -4.000000
v 0.000000 0.000000 -2.000000
v 0.000000 0.000000 0.000000
v 0.000000 0.000000 2.000000
v -2.000000 0.000000 -4.000000
v -2.000000 0.000000 -2.000000
v -2.000000 0.000000 0.000000
v -2.000000 0.000000 2.000000
v -4.000000 0.000000 -4.000000
v -4.000000 0.000000 -2.000000
v -4.000000 0.000000 0.000000
v -4.000000 0.000000 2.000000
vn 0.0000 1.0000 0.0000
usemtl Material.001
s off
f 284//12 295//12 309//12
f 295//12 299//12 310//12
f 299//12 303//12 311//12
f 303//12 307//12 312//12
f 275//12 288//12 313//12
f 287//12 292//12 314//12
f 286//12 293//12 315//12
f 285//12 294//12 316//12
f 288//12 289//12 317//12
f 292//12 296//12 318//12
f 293//12 297//12 319//12
f 294//12 298//12 320//12
f 289//12 290//12 321//12
f 296//12 300//12 322//12
f 297//12 301//12 323//12
f 298//12 302//12 324//12
f 290//12 291//12 325//12
f 300//12 304//12 326//12
f 301//12 305//12 327//12
f 302//12 306//12 328//12
f 291//12 274//12 329//12
f 304//12 276//12 330//12
f 305//12 277//12 331//12
f 306//12 278//12 332//12
f 307//12 279//12 308//12
f 279//12 272//12 308//12
f 272//12 280//12 308//12
f 280//12 307//12 308//12
f 295//12 283//12 309//12
f 283//12 273//12 309//12
f 273//12 284//12 309//12
f 299//12 282//12 310//12
f 282//12 283//12 310//12
f 283//12 295//12 310//12
f 303//12 281//12 311//12
f 281//12 282//12 311//12
f 282//12 299//12 311//12
f 307//12 280//12 312//12
f 280//12 281//12 312//12
f 281//12 303//12 312//12
f 288//12 292//12 313//12
f 292//12 287//12 313//12
f 287//12 275//12 313//12
f 292//12 293//12 314//12
f 293//12 286//12 314//12
f 286//12 287//12 314//12
f 293//12 294//12 315//12
f 294//12 285//12 315//12
f 285//12 286//12 315//12
f 294//12 295//12 316//12
f 295//12 284//12 316//12
f 284//12 285//12 316//12
f 289//12 296//12 317//12
f 296//12 292//12 317//12
f 292//12 288//12 317//12
f 296//12 297//12 318//12
f 297//12 293//12 318//12
f 293//12 292//12 318//12
f 297//12 298//12 319//12
f 298//12 294//12 319//12
f 294//12 293//12 319//12
f 298//12 299//12 320//12
f 299//12 295//12 320//12
f 295//12 294//12 320//12
f 290//12 300//12 321//12
f 300//12 296//12 321//12
f 296//12 289//12 321//12
f 300//12 301//12 322//12
f 301//12 297//12 322//12
f 297//12 296//12 322//12
f 301//12 302//12 323//12
f 302//12 298//12 323//12
f 298//12 297//12 323//12
f 302//12 303//12 324//12
f 303//12 299//12 324//12
f 299//12 298//12 324//12
f 291//12 304//12 325//12
f 304//12 300//12 325//12
f 300//12 290//12 325//12
f 304//12 305//12 326//12
f 305//12 301//12 326//12
f 301//12 300//12 326//12
f 305//12 306//12 327//12
f 306//12 302//12 327//12
f 302//12 301//12 327//12
f 306//12 307//12 328//12
f 307//12 303//12 328//12
f 303//12 302//12 328//12
f 274//12 276//12 329//12
f 276//12 304//12 329//12
f 304//12 291//12 329//12
f 276//12 277//12 330//12
f 277//12 305//12 330//12
f 305//12 304//12 330//12
f 277//12 278//12 331//12
f 278//12 306//12 331//12
f 306//12 305//12 331//12
f 278//12 279//12 332//12
f 279//12 307//12 332//12
f 307//12 306//12 332//12
