# Blender v2.79 (sub 0) OBJ File: ''
# www.blender.org
mtllib cornell-box-cycles.mtl
o area_light
v -3.430000 5.476730 -3.324368
v -2.130000 5.477566 -2.274368
v -3.430000 5.477566 -2.274368
v -2.130000 5.476730 -3.324368
vn 0.0000 -1.0000 0.0008
usemtl Grey
s 1
f 1//1 2//1 3//1
f 1//1 4//1 2//1
o floor
v 0.000000 0.000000 0.000000
v -5.496000 -0.004452 -5.591999
v -5.528000 0.000000 0.000000
v 0.000000 -0.004452 -5.591999
vn 0.0000 1.0000 -0.0008
usemtl Khaki
s 1
f 5//2 6//2 7//2
f 5//2 8//2 6//2
o tall_box
v -2.650000 3.297642 -2.962626
v -4.720000 3.296767 -4.062625
v -4.230000 3.298033 -2.472626
v -4.230000 3.298033 -2.472626
v -4.720000 -0.003232 -4.059999
v -4.230000 -0.001967 -2.469999
v -4.720000 3.296767 -4.062625
v -3.140000 -0.003630 -4.559999
v -4.720000 -0.003232 -4.059999
v -3.140000 -0.003630 -4.559999
v -2.650000 3.297642 -2.962626
v -2.650000 -0.002357 -2.959999
v -2.650000 3.297642 -2.962626
v -4.230000 -0.001967 -2.469999
v -2.650000 -0.002357 -2.959999
v -3.140000 3.296369 -4.562625
v -4.720000 3.296767 -4.062625
v -3.140000 3.296369 -4.562625
v -3.140000 3.296369 -4.562625
v -4.230000 3.298033 -2.472626
vn 0.0000 1.0000 -0.0008
vn -0.9556 0.0002 0.2945
vn -0.3017 -0.0008 -0.9534
vn 0.9562 -0.0002 -0.2928
vn 0.2962 0.0008 0.9551
usemtl Khaki
s 1
f 9//3 10//3 11//3
f 12//4 13//4 14//4
f 15//5 16//5 17//5
f 18//6 19//6 20//6
f 21//7 22//7 23//7
f 9//3 24//3 10//3
f 12//4 25//4 13//4
f 15//5 26//5 16//5
f 18//6 27//6 19//6
f 21//7 28//7 22//7
o short_box
v -1.300000 1.649482 -0.651314
v -2.400000 1.647834 -2.721313
v -2.900000 1.649092 -1.141314
v -2.900000 -0.000908 -1.140000
v -2.400000 1.647834 -2.721313
v -2.400000 -0.002166 -2.719999
v -1.300000 1.649482 -0.651314
v -2.900000 -0.000908 -1.140000
v -1.300000 -0.000518 -0.650000
v -0.820000 1.648208 -2.251313
v -1.300000 -0.000518 -0.650000
v -0.820000 -0.001792 -2.249999
v -2.400000 1.647834 -2.721313
v -0.820000 -0.001792 -2.249999
v -2.400000 -0.002166 -2.719999
v -0.820000 1.648208 -2.251313
v -2.900000 1.649092 -1.141314
v -2.900000 1.649092 -1.141314
v -1.300000 1.649482 -0.651314
v -0.820000 1.648208 -2.251313
vn 0.0000 1.0000 -0.0008
vn -0.9534 -0.0002 -0.3017
vn -0.2928 0.0008 0.9562
vn 0.9578 0.0002 0.2873
vn 0.2851 -0.0008 -0.9585
usemtl Khaki
s 1
f 29//8 30//8 31//8
f 32//9 33//9 34//9
f 35//10 36//10 37//10
f 38//11 39//11 40//11
f 41//12 42//12 43//12
f 29//8 44//8 30//8
f 32//9 45//9 33//9
f 35//10 46//10 36//10
f 38//11 47//11 39//11
f 41//12 48//12 42//12
o right_wall
v 0.000000 0.000000 0.000000
v 0.000000 5.483546 -5.596367
v 0.000000 -0.004452 -5.591998
v 0.000000 5.487998 -0.004369
vn -1.0000 0.0000 0.0000
usemtl DarkGreen
s 1
f 49//13 50//13 51//13
f 49//13 52//13 50//13
o ceiling
v -5.560000 5.483546 -5.596368
v 0.000000 5.487998 -0.004369
v -5.560000 5.487998 -0.004369
v 0.000000 5.483546 -5.596368
vn 0.0000 -1.0000 0.0008
usemtl Khaki
s 1
f 53//14 54//14 55//14
f 53//14 56//14 54//14
o left_wall
v -5.528000 0.000000 0.000000
v -5.560000 5.483546 -5.596367
v -5.560000 5.487998 -0.004369
v -5.496000 -0.004452 -5.591998
vn 1.0000 0.0087 0.0028
vn 1.0000 0.0088 0.0029
vn 1.0000 0.0058 -0.0000
vn 0.9999 0.0117 0.0057
usemtl Material.003
s 1
f 57//15 58//16 59//17
f 57//15 60//18 58//16
o back_wall
v -5.495999 -0.004452 -5.591999
v 0.000000 5.483546 -5.596367
v -5.560000 5.483546 -5.596367
v 0.000000 -0.004452 -5.591999
vn 0.0000 0.0008 1.0000
usemtl Khaki
s 1
f 61//19 62//19 63//19
f 61//19 64//19 62//19
