# Blender v2.79 (sub 0) OBJ File: 'cornel bakstenen.blend'
# www.blender.org
mtllib cornel bakstenen.mtl
o Plane.004
v -5.000000 0.000000 -5.000000
v 5.000000 0.000000 -5.000000
v -5.000000 10.000000 -5.000000
v 5.000000 10.000000 -5.000000
vn 0.0000 0.0000 1.0000
usemtl Material.001
s off
f 1//1 2//1 4//1 3//1
o Plane.003
v 5.000000 10.000000 5.000000
v 5.000000 0.000000 5.000000
v 5.000000 10.000000 -5.000000
v 5.000000 0.000000 -5.000000
vt 0.000100 0.000100
vt 0.999900 0.000100
vt 0.999900 0.999900
vt 0.000100 0.999900
vn 1.0000 0.0000 0.0000
usemtl Material.004
s off
f 5/1/2 6/2/2 8/3/2 7/4/2
o Plane.002
v -5.000000 10.000000 5.000000
v 5.000000 10.000000 5.000000
v -5.000000 10.000000 -5.000000
v 5.000000 10.000000 -5.000000
v -1.250000 10.000000 5.000000
v -1.250000 10.000000 -5.000000
v 1.250000 10.000000 5.000000
v 1.250000 10.000000 -5.000000
v -5.000000 10.000000 1.250000
v 5.000000 10.000000 1.250000
v -1.250000 10.000000 1.250000
v 1.250000 10.000000 1.250000
v 5.000000 10.000000 -1.250000
v -1.250000 10.000000 -1.250000
v 1.250000 10.000000 -1.250000
v -5.000000 10.000000 -1.250000
vn 0.0000 1.0000 0.0000
usemtl Material.005
s off
f 23//3 21//3 12//3 16//3
f 24//3 22//3 14//3 11//3
f 22//3 23//3 16//3 14//3
f 13//3 15//3 20//3 19//3
f 9//3 13//3 19//3 17//3
f 15//3 10//3 18//3 20//3
f 17//3 19//3 22//3 24//3
f 20//3 18//3 21//3 23//3
usemtl Material.006
f 19//3 20//3 23//3 22//3
o Plane.001
v -5.000000 10.000000 5.000000
v -5.000000 0.000000 5.000000
v -5.000000 10.000000 -5.000000
v -5.000000 0.000000 -5.000000
vt 1.086236 1.086236
vt -0.086236 1.086236
vt -0.086236 -0.086236
vt 1.086236 -0.086236
vn 1.0000 0.0000 0.0000
usemtl Material.003
s off
f 25/5/4 26/6/4 28/7/4 27/8/4
o Plane
v -5.000000 0.000000 5.000000
v 5.000000 0.000000 5.000000
v -5.000000 0.000000 -5.000000
v 5.000000 0.000000 -5.000000
v 2.000000 0.000000 5.000000
v 2.000000 0.000000 -5.000000
v -2.000000 0.000000 -5.000000
v -2.000000 0.000000 5.000000
v -5.000000 0.000000 -2.000000
v 5.000000 0.000000 -2.000000
v 2.000000 0.000000 -2.000000
v -2.000000 0.000000 -2.000000
v -5.000000 0.000000 2.000000
v 5.000000 0.000000 2.000000
v 2.000000 0.000000 2.000000
v -2.000000 0.000000 2.000000
v 2.000000 3.000000 2.000000
v 2.000000 3.000000 -2.000000
v -2.000000 3.000000 2.000000
v -2.000000 3.000000 -2.000000
vn 0.0000 1.0000 0.0000
vn 1.0000 0.0000 0.0000
vn 0.0000 0.0000 -1.0000
vn -1.0000 0.0000 0.0000
vn 0.0000 0.0000 1.0000
usemtl Material.002
s off
f 39//5 38//5 32//5 34//5
f 40//5 39//5 34//5 35//5
f 37//5 40//5 35//5 31//5
f 41//5 44//5 40//5 37//5
f 43//6 39//6 46//6 45//6
f 43//5 42//5 38//5 39//5
f 33//5 30//5 42//5 43//5
f 36//5 33//5 43//5 44//5
f 29//5 36//5 44//5 41//5
f 47//5 45//5 46//5 48//5
f 39//7 40//7 48//7 46//7
f 40//8 44//8 47//8 48//8
f 44//9 43//9 45//9 47//9
