# Blender v2.79 (sub 0) OBJ File: 'test.blend'
# www.blender.org
mtllib test.mtl
o Plane
v -1.000000 0.000000 1.000000
v 5.000000 0.000000 1.000000
v -1.000000 0.000000 -5.000000
v 2.000000 0.000000 1.000000
v 2.000000 0.000000 -5.000000
v 5.000000 0.000000 5.386806
v 2.000000 0.000000 5.386806
v -1.000000 0.000000 -2.000000
v 5.000000 0.000000 -2.000000
v 2.000000 0.000000 -2.000000
v -5.000000 0.000000 4.500000
v -5.000000 0.000000 1.500000
v 2.000000 3.000000 0.999997
v 2.000000 3.000000 5.386803
v 5.000000 3.000000 5.386806
v 2.000000 3.000000 5.386806
v 5.000000 0.000000 1.000000
v 5.000000 0.000000 5.386806
v 5.000000 3.000000 1.000000
v 5.000000 3.000000 5.386806
v 5.000000 3.000000 1.000000
v 5.000000 3.000000 -2.000000
v 5.000000 3.000000 -2.000000
v 2.000000 3.000000 -2.000000
v 2.000000 3.000000 -5.000000
v 2.000000 3.000000 -2.000000
v -1.000000 3.000000 -5.000000
v 2.000000 3.000000 -5.000000
v -1.000000 3.000000 -5.000000
v -1.000000 3.000000 -2.000000
v -1.000000 3.000000 1.000000
v -1.000000 3.000000 -2.000000
v -5.000000 3.000000 4.500000
v -5.000000 3.000000 1.500000
v -1.000000 3.000000 1.000000
v 2.000000 3.000000 1.000000
v 3.500000 1.500000 5.386806
v 3.500000 0.000000 3.193403
v 2.000000 1.500000 3.193402
v 5.000000 1.500000 3.193403
v 5.000000 1.500000 -0.500000
v 3.500000 0.000000 -0.500000
v 3.500000 1.500000 -2.000000
v 0.500000 0.000000 -3.500000
v 2.000000 1.500000 -3.500000
v 0.500000 1.500000 -5.000000
v -1.000000 1.500000 -3.500000
v 0.500000 0.000000 -0.500000
v 0.500000 1.500000 1.000000
v -3.000000 1.500000 2.750000
v -3.000000 0.000000 1.250000
v -3.000000 1.500000 -0.250000
v -5.000000 1.500000 3.000000
vn 1.0000 0.0000 -0.0000
vn 0.0000 0.0000 1.0000
vn -1.0000 0.0000 0.0000
vn 0.0000 0.0000 -1.0000
vn 0.6585 -0.0000 0.7526
vn 0.0000 1.0000 0.0000
vn -0.6585 0.0000 -0.7526
usemtl Material.001
s off
f 7//1 4//1 39//1
f 3//2 5//2 46//2
f 11//1 12//1 53//1
f 4//1 13//1 39//1
f 13//1 14//1 39//1
f 14//1 7//1 39//1
f 5//2 28//2 46//2
f 28//2 27//2 46//2
f 27//2 3//2 46//2
f 12//1 34//1 53//1
f 34//1 33//1 53//1
f 33//1 11//1 53//1
usemtl Material.002
f 5//3 10//3 45//3
f 4//4 1//4 49//4
f 10//2 9//2 43//2
f 12//5 8//5 52//5
f 17//3 18//3 40//3
f 2//2 18//2 17//2
f 9//3 2//3 41//3
f 4//6 2//6 42//6
f 8//6 10//6 44//6
f 8//1 3//1 47//1
f 1//6 4//6 48//6
f 1//6 8//6 51//6
f 1//7 11//7 50//7
f 6//4 7//4 37//4
f 7//4 16//4 37//4
f 16//4 15//4 37//4
f 15//4 6//4 37//4
f 2//6 4//6 38//6
f 4//6 7//6 38//6
f 7//6 6//6 38//6
f 6//6 2//6 38//6
f 18//3 20//3 40//3
f 20//3 19//3 40//3
f 19//3 17//3 40//3
f 2//3 21//3 41//3
f 21//3 22//3 41//3
f 22//3 9//3 41//3
f 2//6 9//6 42//6
f 9//6 10//6 42//6
f 10//6 4//6 42//6
f 9//2 23//2 43//2
f 23//2 24//2 43//2
f 24//2 10//2 43//2
f 10//6 5//6 44//6
f 5//6 3//6 44//6
f 3//6 8//6 44//6
f 10//3 26//3 45//3
f 26//3 25//3 45//3
f 25//3 5//3 45//3
f 3//1 29//1 47//1
f 29//1 30//1 47//1
f 30//1 8//1 47//1
f 4//6 10//6 48//6
f 10//6 8//6 48//6
f 8//6 1//6 48//6
f 1//4 35//4 49//4
f 35//4 36//4 49//4
f 36//4 4//4 49//4
f 11//7 33//7 50//7
f 33//7 31//7 50//7
f 31//7 1//7 50//7
f 8//6 12//6 51//6
f 12//6 11//6 51//6
f 11//6 1//6 51//6
f 8//5 32//5 52//5
f 32//5 34//5 52//5
f 34//5 12//5 52//5
f 2//2 6//2 18//2
